<svg width="73" height="72" viewBox="0 0 73 72" fill="none" xmlns="http://www.w3.org/2000/svg">
<path d="M69.3888 28.6667L63.1666 26.6667L61.8332 23.3333L64.9443 17.5556C65.611 16.2222 65.3888 14.4444 64.2777 13.3333L58.9443 8C57.8332 6.88889 56.0555 6.66667 54.7221 7.33333L48.9443 10.4444L45.611 9.11111L43.611 2.88889C43.1666 1.55556 41.8332 0.444445 40.2777 0.444445H32.7221C31.1666 0.444445 29.8332 1.55556 29.611 3.11111L27.611 9.33333C26.2777 9.55556 25.1666 10 24.0554 10.6667L18.2777 7.55556C16.9443 6.88889 15.1666 7.11111 14.0554 8.22222L8.72211 13.5556C7.611 14.6667 7.38878 16.4444 8.05545 17.7778L10.9443 23.3333C10.4999 24.4444 10.0554 25.7778 9.611 26.8889L3.38878 28.8889C2.05545 29.3333 0.944336 30.6667 0.944336 32.2222V39.7778C0.944336 41.3333 2.05545 42.6667 3.611 43.1111L9.83323 45.1111L11.1666 48.4444L8.05545 54.2222C7.38878 55.5556 7.611 57.3333 8.72211 58.4444L14.0554 63.7778C15.1666 64.8889 16.9443 65.1111 18.2777 64.4444L24.0554 61.3333L27.3888 62.6667L29.3888 69.1111C29.8332 70.4445 31.1666 71.5556 32.7221 71.5556H40.2777C41.8332 71.5556 43.1666 70.4445 43.611 69.1111L45.611 62.6667L48.9443 61.3333L54.7221 64.4444C56.0555 65.1111 57.8332 64.8889 58.9443 63.7778L64.2777 58.4444C65.3888 57.3333 65.611 55.5556 64.9443 54.2222L61.8332 48.4444L63.1666 45.1111L69.611 43.1111C70.9443 42.6667 72.0555 41.3333 72.0555 39.7778V32.2222C72.0555 30.6667 70.9443 29.1111 69.3888 28.6667ZM67.611 39.1111L59.611 41.5556L59.3888 42.6667L57.3888 47.3333L56.7221 48.4444L60.7221 55.7778L56.2777 60.2222L48.9443 56.2222L47.8332 56.8889C46.2777 57.7778 44.7221 58.4444 43.1666 58.8889L42.0555 59.1111L39.611 67.1111H33.3888L30.9443 59.1111L29.8332 58.8889L25.1666 56.8889L24.0554 56.2222L16.7221 60.2222L12.2777 55.7778L16.2777 48.4444L15.611 47.3333C14.7221 45.7778 14.0554 44.2222 13.611 42.6667L13.3888 41.5556L5.38878 39.1111V32.8889L12.9443 30.6667L13.3888 29.5556C13.8332 27.7778 14.4999 26.2222 15.3888 24.6667L16.0554 23.5556L12.2777 16.2222L16.7221 11.7778L23.8332 15.7778L24.9443 15.1111C26.4999 14.2222 28.0554 13.5556 29.8332 13.1111L30.9443 12.6667L33.3888 4.88889H39.611L42.0555 12.6667L43.1666 13.1111C44.7221 13.5556 46.2777 14.2222 47.8332 15.1111L48.9443 15.7778L56.2777 11.7778L60.7221 16.2222L56.7221 23.5556L57.3888 24.6667C58.2777 26.2222 58.9443 27.7778 59.3888 29.3333L59.611 30.4444L67.611 32.8889V39.1111Z" fill="white"/>
</svg>
