<svg xmlns="http://www.w3.org/2000/svg" width="17" height="21" fill="none" viewBox="0 0 17 21"><path fill="#0A0B0F" d="M14.2129 11.0693C14.2031 9.42994 14.9546 8.19441 16.4722 7.28339C15.6235 6.08151 14.3393 5.42048 12.6466 5.29308C11.0439 5.16809 9.29041 6.21612 8.64835 6.21612C7.96981 6.21612 6.41817 5.33635 5.19728 5.33635C2.67768 5.37481 0 7.32185 0 11.2832C0 12.4539 0.216452 13.663 0.649356 14.9081C1.22818 16.5475 3.31488 20.5641 5.49156 20.4992C6.62976 20.4728 7.43476 19.7012 8.91588 19.7012C10.3532 19.7012 11.0974 20.4992 12.367 20.4992C14.5631 20.468 16.4504 16.8167 17 15.1725C14.0548 13.8 14.2129 11.1534 14.2129 11.0693ZM11.6568 3.73785C12.8898 2.2908 12.778 0.973539 12.7415 0.5C11.6519 0.562498 10.3921 1.23314 9.67468 2.05763C8.88426 2.94221 8.41974 4.03592 8.51946 5.26905C9.69657 5.35798 10.7715 4.75945 11.6568 3.73785Z"/></svg>