<svg width="21" height="18" viewBox="0 0 21 18" fill="none" xmlns="http://www.w3.org/2000/svg">
<path d="M7.61279 15.704C8.262 15.8972 8.93544 15.9969 9.61279 16C13.7948 16 17.3768 11.987 18.8698 10.038C19.1004 9.74071 19.2255 9.37509 19.2253 8.99883C19.2252 8.62256 19.0997 8.25707 18.8688 7.96C18.3441 7.27549 17.7812 6.62112 17.1828 6M11.7428 6.887C11.4651 6.60467 11.1342 6.38011 10.7693 6.22629C10.4044 6.07246 10.0126 5.99241 9.61659 5.99075C9.22057 5.98909 8.82814 6.06586 8.46194 6.21662C8.09574 6.36738 7.76301 6.58916 7.48295 6.86915C7.20289 7.14915 6.98103 7.48183 6.83019 7.84799C6.67934 8.21416 6.60248 8.60657 6.60404 9.00259C6.60561 9.3986 6.68557 9.79039 6.83931 10.1554C6.99305 10.5203 7.21753 10.8512 7.49979 11.129L11.7428 6.887ZM1.61279 17L17.6128 1L1.61279 17Z" stroke="#78767F" stroke-width="2" stroke-linecap="round" stroke-linejoin="round"/>
</svg>
