<svg width="22" height="18" viewBox="0 0 22 18" fill="none" xmlns="http://www.w3.org/2000/svg">
<path d="M5.48593 14.129C3.64093 12.819 2.18093 11.115 1.35593 10.039C1.12523 9.74198 1 9.37659 1 9.0005C1 8.62441 1.12523 8.25902 1.35593 7.962C2.84893 6.013 6.43093 2 10.6129 2C12.4889 2 14.2429 2.807 15.7429 3.874" stroke="#78767F" stroke-width="2" stroke-linecap="round" stroke-linejoin="round"/>
<path d="M2.61279 17L18.6128 1M8.61279 15.704C9.262 15.8972 9.93544 15.9969 10.6128 16C14.7948 16 18.3768 11.987 19.8698 10.038C20.1004 9.74071 20.2255 9.37509 20.2253 8.99883C20.2252 8.62256 20.0997 8.25707 19.8688 7.96C19.3441 7.27549 18.7812 6.62112 18.1828 6M12.7428 6.887C12.4651 6.60467 12.1342 6.38011 11.7693 6.22629C11.4044 6.07246 11.0126 5.99241 10.6166 5.99075C10.2206 5.98909 9.82814 6.06586 9.46194 6.21662C9.09574 6.36738 8.76301 6.58916 8.48295 6.86915C8.20289 7.14915 7.98103 7.48183 7.83019 7.84799C7.67934 8.21416 7.60248 8.60657 7.60404 9.00259C7.60561 9.3986 7.68557 9.79039 7.83931 10.1554C7.99305 10.5203 8.21753 10.8512 8.49979 11.129L12.7428 6.887Z" stroke="#78767F" stroke-width="2" stroke-linecap="round" stroke-linejoin="round"/>
</svg>
